<svg id="Слой_1" data-name="Слой 1" xmlns="http://www.w3.org/2000/svg" xmlns:xlink="http://www.w3.org/1999/xlink" viewBox="0 0 695.59 440.07"><defs><style>.cls-1{fill:url(#Безымянный_градиент_91);}.cls-2{fill:url(#Безымянный_градиент_91-2);}.cls-3{fill:url(#Безымянный_градиент_101);}.cls-4{fill:url(#Безымянный_градиент_101-2);}.cls-5{fill:url(#Безымянный_градиент_101-3);}.cls-6{fill:url(#Безымянный_градиент_101-4);}.cls-7{fill:url(#Безымянный_градиент_101-5);}.cls-8{fill:url(#Безымянный_градиент_101-6);}</style><linearGradient id="Безымянный_градиент_91" x1="192.21" y1="467.51" x2="656.2" y2="467.51" gradientUnits="userSpaceOnUse"><stop offset="0.01" stop-color="#671090"/><stop offset="1" stop-color="#8919be"/></linearGradient><linearGradient id="Безымянный_градиент_91-2" x1="602.48" y1="479.92" x2="887.79" y2="479.92" xlink:href="#Безымянный_градиент_91"/><linearGradient id="Безымянный_градиент_101" x1="265.15" y1="717.58" x2="331.33" y2="717.58" gradientUnits="userSpaceOnUse"><stop offset="0" stop-color="#fff"/><stop offset="0" stop-color="#671090"/><stop offset="1" stop-color="#8919be"/></linearGradient><linearGradient id="Безымянный_градиент_101-2" x1="361.65" y1="717.96" x2="441.5" y2="717.96" xlink:href="#Безымянный_градиент_101"/><linearGradient id="Безымянный_градиент_101-3" x1="474.21" y1="717.96" x2="519.37" y2="717.96" xlink:href="#Безымянный_градиент_101"/><linearGradient id="Безымянный_градиент_101-4" x1="553.88" y1="717.96" x2="617.45" y2="717.96" xlink:href="#Безымянный_градиент_101"/><linearGradient id="Безымянный_градиент_101-5" x1="651.36" y1="717.96" x2="722.28" y2="717.96" xlink:href="#Безымянный_градиент_101"/><linearGradient id="Безымянный_градиент_101-6" x1="749.55" y1="717.96" x2="814.85" y2="717.96" xlink:href="#Безымянный_градиент_101"/></defs><path class="cls-1" d="M194.65,460.39q-2.44,0-2.44-6.11t10.58-21.77q10.58-15.67,30.73-33.79a374.34,374.34,0,0,1,45-34.39q24.83-16.27,57.6-27.07A206.91,206.91,0,0,1,401,326.48q3.25,1.22,8.35,3t13.43,7.73q8.34,5.91,8.34,10.79t-2,7.33q-31.35,28.49-70.21,68.78t-59.63,67.16L270,529.58q-2.44,3.66-2.45,5.7v.4l6.52-3.25a4.67,4.67,0,0,0,1.22-.82Q423.8,427,474.27,383.46a3.86,3.86,0,0,1,3.25-1.63,3.17,3.17,0,0,1,2.85,1.22q.81,1.23,7.74,7.53t6.92,9.36a6.35,6.35,0,0,1-2.45,5.09q-40.29,38.27-82.21,96.06t-41.93,89.14q0,3.66,3.67,3.66,8.13,0,38.26-22T479,516.15q38.46-33.78,81.4-82.83t70.21-95.45q3.66-7.72,5.7-12.82t6.31-5.08q4.27,0,8.95,12t4.68,21q0,14.26-32.56,57t-76.11,88.32a690.36,690.36,0,0,1-92.39,81.2q-48.84,35.61-76.93,35.61-13.43,0-26.66-10.58t-13.23-34.19q0-29.31,17.51-60.24a102.27,102.27,0,0,1,16.68-22l9.37-11,1.62-3.25v-.41c0-.54-.14-.81-.4-.81q-1.23,0-3.67,2.44-90.76,79.77-122.92,106t-37.85,26.25q-5.7,0-9.36-5.7c-1.09-1.35-2.24-2.78-3.46-4.27s-2.1-2.58-2.65-3.26l-1.62-2c-.54-.68-.95-1.15-1.22-1.43a33.69,33.69,0,0,1-.41-6.1q0-4.06,2.85-11.81t5.49-14.85q2.64-7.12,15.27-30.12a393,393,0,0,1,30.11-46.4Q271.16,458,305,424.16A697.43,697.43,0,0,1,380.65,359q7.74-6.1,7.74-7.73a1.44,1.44,0,0,0-1.63-1.63q-30.52,0-101.55,40.7t-86.9,66.34Q197.1,460.4,194.65,460.39Z" transform="translate(-192.21 -319.97)"/><path class="cls-2" d="M628.52,444.92q.4-21.57,23.81-47.21t62.28-44.37q38.86-18.72,77.13-18.72,23.19,0,41.31,5.9T861.14,355a78.06,78.06,0,0,1,16.48,19.54q10.17,17.91,10.17,36.22,0,30.52-40.49,68.58T737.61,555.63q-9.78,5.7-9.77,8.14,0,1.22,13.63,1.22t36.23,4.48q22.59,4.49,47,17.91a122.44,122.44,0,0,1,39.88,34.19,3.49,3.49,0,0,1,1.23,2.44c0,.81-.48,1.22-1.43,1.22s-8.69-1.57-23.2-4.68-34.26-6.25-59.22-9.36a569,569,0,0,0-70.62-4.68q-33.18,0-75.91,9.76a12.32,12.32,0,0,1-3.66.41q-29.31-19.53-29.3-30.53,0-12.6,40.29-16.68,4.47,0,38.87-18.32T757.35,507A431.64,431.64,0,0,0,832,448.18q33.38-33,33.38-57,0-19.94-41.11-19.94-14.65,0-36,4.88a268.15,268.15,0,0,0-39.69,12.21q-18.32,7.34-42.53,23a279.47,279.47,0,0,0-45.79,37.24q-11,11.4-11,17.91,0,4.49,6.51,4.48,15.47-.41,51.08-16.08t55.56-38.46q7.34-9,9.77-9c1.63,1.09,2.44,2.18,2.44,3.26q0,26.06-38.66,56.17T669.23,497q-4.89,0-13-3.87a53,53,0,0,1-13.43-8.75q-5.29-4.89-9.77-15.26T628.52,444.92Z" transform="translate(-192.21 -319.97)"/><path class="cls-3" d="M265.15,758.67l30.72-82.19h4.68l30.78,82.19h-8.61l-10.46-29H283.88l-10.46,29Zm21.46-36.16h22.93l-11.44-32.3Z" transform="translate(-192.21 -319.97)"/><path class="cls-4" d="M365,735.16a41.93,41.93,0,0,1-3.38-17,42.68,42.68,0,0,1,3.32-17A40.8,40.8,0,0,1,374,687.84a42.12,42.12,0,0,1,13.4-8.77,43.31,43.31,0,0,1,16.85-3.19q17.49,0,29.36,12l-4.9,5.67a34.88,34.88,0,0,0-11.52-7.85,36.54,36.54,0,0,0-13.34-2.28A34.38,34.38,0,0,0,390.27,686a33.36,33.36,0,0,0-10.71,7.25q-9.8,9.91-9.8,24.94,0,14.71,9.86,24.57t24.24,9.75a30.3,30.3,0,0,0,18.52-5.92,26,26,0,0,0,10.18-15.27h-27v-7.14H441.5a35.88,35.88,0,0,1-3.33,14A37.79,37.79,0,0,1,403.75,760a43.36,43.36,0,0,1-16.1-3,41.36,41.36,0,0,1-13.45-8.57A40.59,40.59,0,0,1,365,735.16Z" transform="translate(-192.21 -319.97)"/><path class="cls-5" d="M474.21,758.67V677.24h43v7.14H481.89v29.25H515v7.13H481.89v30.78h37.48v7.13Z" transform="translate(-192.21 -319.97)"/><path class="cls-6" d="M553.88,758.67V677.24h7.68L609.77,745V677.24h7.68v81.43H610.3l-48.74-68.25v68.25Z" transform="translate(-192.21 -319.97)"/><path class="cls-7" d="M654.58,735a42.83,42.83,0,0,1-3.22-16.61,44.88,44.88,0,0,1,3-16.51,42.66,42.66,0,0,1,8.34-13.45,38.18,38.18,0,0,1,29.18-12.5q18.42,0,28.82,12.86l-5.67,5q-9.42-10.35-23.91-10.35a29.24,29.24,0,0,0-22.6,10q-9,9.92-9,24.24,0,15.42,9.64,25.44a30.81,30.81,0,0,0,10.15,7,30,30,0,0,0,11.85,2.45q14.71,0,25.55-12l5.61,4.68a39,39,0,0,1-12.48,10.3A36.71,36.71,0,0,1,692.16,760,40.83,40.83,0,0,1,675.87,757a39.13,39.13,0,0,1-12.6-8.66A41.67,41.67,0,0,1,654.58,735Z" transform="translate(-192.21 -319.97)"/><path class="cls-8" d="M749.55,677.24h9l23.77,35.46,23.73-35.46h8.76l-29,43v38.4H778.2V720.16Z" transform="translate(-192.21 -319.97)"/></svg>